<svg xmlns="http://www.w3.org/2000/svg" viewBox="0 0 32 32" fill="none">
  <rect width="32" height="32" rx="7" fill="#1A1410"/>
  <path d="M16 5C12 5 9 7 7.5 10C6 13.5 6 17.5 8 21C9.5 23.5 12 25.5 15 26.5C17 27 19.5 26.5 21 25C22.5 23.5 23 21.5 22.5 19.5C22 17.8 20.5 16.5 19 15C17.5 13.5 16.8 11.5 16 5Z" fill="#C84A3A"/>
  <path d="M16 9C13.5 9 11.5 10.2 10.5 12C9.5 14 9.5 16.5 10.5 18.5C11.3 20 12.8 21.2 14.5 21.6C15.8 21.9 17.2 21.8 18.3 21C19.2 20.3 19.8 19.2 19.8 18C19.8 16.8 19.2 15.8 18.3 15.2C17.2 14.4 15.8 13.8 15.2 12.5C14.7 11.5 14.2 10.2 16 9Z" fill="#F4E8D6"/>
  <path d="M16 13.5L16.8 15.8L19.2 16.2L17.5 17.8L18 20.2L16 19L14 20.2L14.5 17.8L12.8 16.2L15.2 15.8L16 13.5Z" fill="#C84A3A"/>
  <path d="M16 3C17 1.8 18.8 1.5 20 2.5C21 3.4 21.2 5 20.2 6C19.5 6.7 18.2 6.8 17.2 6.2C16.2 5.6 15.8 4.2 16 3Z" fill="#D4A574"/>
</svg>
