<svg xmlns="http://www.w3.org/2000/svg" width="1200" height="630" viewBox="0 0 1200 630" fill="none">
  <defs>
    <linearGradient id="bg" x1="600" y1="0" x2="600" y2="630" gradientUnits="userSpaceOnUse">
      <stop stop-color="#1a0a08"/>
      <stop offset="1" stop-color="#0a0403"/>
    </linearGradient>
    <radialGradient id="glow" cx="0" cy="0" r="1" gradientUnits="userSpaceOnUse" gradientTransform="translate(600 80) rotate(90) scale(420 520)">
      <stop stop-color="#c43a2a" stop-opacity="0.35"/>
      <stop offset="1" stop-color="#c43a2a" stop-opacity="0"/>
    </radialGradient>
    <linearGradient id="gold" x1="0" y1="0" x2="1" y2="0">
      <stop stop-color="#d4a054"/>
      <stop offset="1" stop-color="#f5ebe0"/>
    </linearGradient>
  </defs>
  <rect width="1200" height="630" fill="url(#bg)"/>
  <rect width="1200" height="630" fill="url(#glow)"/>
  <rect x="48" y="48" width="1104" height="534" rx="28" stroke="#d4a054" stroke-opacity="0.18" stroke-width="2"/>
  <g transform="translate(120, 165) scale(3.2)">
    <path d="M16 5C12 5 9 7 7.5 10C6 13.5 6 17.5 8 21C9.5 23.5 12 25.5 15 26.5C17 27 19.5 26.5 21 25C22.5 23.5 23 21.5 22.5 19.5C22 17.8 20.5 16.5 19 15C17.5 13.5 16.8 11.5 16 5Z" fill="#C84A3A"/>
    <path d="M16 9C13.5 9 11.5 10.2 10.5 12C9.5 14 9.5 16.5 10.5 18.5C11.3 20 12.8 21.2 14.5 21.6C15.8 21.9 17.2 21.8 18.3 21C19.2 20.3 19.8 19.2 19.8 18C19.8 16.8 19.2 15.8 18.3 15.2C17.2 14.4 15.8 13.8 15.2 12.5C14.7 11.5 14.2 10.2 16 9Z" fill="#F4E8D6"/>
    <path d="M16 13.5L16.8 15.8L19.2 16.2L17.5 17.8L18 20.2L16 19L14 20.2L14.5 17.8L12.8 16.2L15.2 15.8L16 13.5Z" fill="#C84A3A"/>
    <path d="M16 3C17 1.8 18.8 1.5 20 2.5C21 3.4 21.2 5 20.2 6C19.5 6.7 18.2 6.8 17.2 6.2C16.2 5.6 15.8 4.2 16 3Z" fill="#D4A574"/>
  </g>
  <text x="320" y="250" fill="#f5ebe0" font-family="Georgia, Times New Roman, serif" font-size="96" font-weight="700">High Steaks</text>
  <text x="322" y="330" fill="url(#gold)" font-family="Arial, Helvetica, sans-serif" font-size="42" font-weight="600" letter-spacing="0.04em">Snap. Rate. Savor.</text>
  <text x="322" y="400" fill="#b8a89a" font-family="Arial, Helvetica, sans-serif" font-size="28" font-weight="400">The social network for steak lovers</text>
  <text x="322" y="470" fill="#c43a2a" font-family="Arial, Helvetica, sans-serif" font-size="22" font-weight="600" letter-spacing="0.22em">COOK - RATE - SHARE</text>
  <circle cx="1040" cy="120" r="6" fill="#d4a054" fill-opacity="0.5"/>
  <circle cx="1080" cy="160" r="4" fill="#c43a2a" fill-opacity="0.6"/>
  <circle cx="1010" cy="180" r="3" fill="#f5ebe0" fill-opacity="0.35"/>
</svg>
